<svg xmlns="http://www.w3.org/2000/svg" width="1920" viewBox="0 0 1440 810" height="1080" version="1.0"><path d="M305.14 654.649H135.954c-8.242 0-15.074-1.516-20.5-4.547-5.418-3.039-9.648-8.68-12.687-16.922L39 473.758c-3.899-9.539-7.149-17.89-9.75-25.047-2.606-7.156-4.777-13.988-6.516-20.5-1.73-6.507-2.922-13.343-3.578-20.5-.648-7.156-.969-15.937-.969-26.343V209.586c0-8.25 1.844-14.218 5.532-17.906 3.687-3.687 9.648-5.531 17.89-5.531h103.453c8.25 0 14.54 1.844 18.875 5.531 4.332 3.688 6.5 9.656 6.5 17.906v179.579c0 4.343.43 8.687 1.297 13.03.875 4.337 2.18 8.888 3.922 13.657l30.578 91.094c1.301 4.336 2.817 7.262 4.547 8.781 1.738 1.524 4.344 2.281 7.813 2.281h7.156c3.469 0 6.07-.757 7.812-2.28 1.739-1.52 3.254-4.446 4.547-8.782l30.594-91.75c1.727-4.77 3.023-9.32 3.89-13.656a65.743 65.743 0 0 0 1.313-13.016V209.586c0-8.25 1.844-14.218 5.531-17.906 3.688-3.687 9.649-5.531 17.891-5.531h102.156c8.239 0 14.203 1.844 17.89 5.531 3.688 3.688 5.532 9.656 5.532 17.906v171.782c0 10.406-.328 19.187-.984 26.343-.649 7.157-1.84 13.993-3.578 20.5-1.73 6.512-3.899 13.344-6.5 20.5-2.594 7.157-5.844 15.508-9.75 25.047L338.328 633.18c-3.043 8.242-7.277 13.883-12.703 16.922-5.418 3.031-12.246 4.547-20.484 4.547ZM745.656 654.649H526.375c-8.25 0-14.22-1.844-17.907-5.531-3.687-3.688-5.531-9.649-5.531-17.89V209.585c0-8.25 1.844-14.218 5.531-17.906 3.688-3.687 9.657-5.531 17.907-5.531h219.28c54.22 0 94.446 10.852 120.688 32.547 26.25 21.687 39.375 55.09 39.375 100.203v203.016c0 45.117-13.125 78.515-39.375 100.203-26.242 21.687-66.468 32.531-120.687 32.531Zm-95-344.219v221.235h77.422c10.414 0 18.117-2.598 23.109-7.797 4.988-5.207 7.484-13.235 7.484-24.078V341.665c0-10.844-2.496-18.758-7.484-23.75-4.992-4.989-12.695-7.485-23.11-7.485ZM1128.254 631.227c0 8.242-1.844 14.203-5.531 17.89-3.688 3.688-9.653 5.532-17.891 5.532h-98.906c-8.243 0-14.203-1.844-17.891-5.531-3.687-3.688-5.531-9.649-5.531-17.89v-69.626c0-19.957 1.734-34.922 5.203-44.89 3.469-9.977 9.973-21.692 19.516-35.141l52.703-70.922-52.703-70.938c-9.98-13.445-16.594-25.156-19.844-35.125-3.25-9.976-4.875-24.945-4.875-44.906v-50.094c0-8.25 1.844-14.218 5.531-17.906 3.688-3.687 9.648-5.531 17.89-5.531h100.204c8.238 0 14.203 1.844 17.89 5.531 3.688 3.688 5.532 9.656 5.532 17.906v44.891c0 4.336.21 8.89.64 13.672.438 4.773 2.176 9.324 5.219 13.656l28.625 41c2.176 3.469 4.457 6.184 6.844 8.14 2.383 1.95 5.312 2.923 8.781 2.923h7.797c3.476 0 6.3-.973 8.469-2.922 2.164-1.957 4.55-4.672 7.156-8.14l29.281-41c3.031-4.333 4.766-8.884 5.203-13.657.438-4.781.657-9.336.657-13.672v-44.89c0-8.25 1.843-14.22 5.53-17.907 3.688-3.687 9.65-5.531 17.891-5.531h98.907c8.238 0 14.203 1.844 17.89 5.531 3.688 3.688 5.532 9.656 5.532 17.906v50.094c0 19.961-1.735 34.93-5.204 44.906-3.468 9.97-9.976 21.68-19.515 35.125l-52.719 71.579 52.719 70.28c9.969 13.45 16.578 25.165 19.828 35.141 3.258 9.97 4.89 24.934 4.89 44.891v69.625c0 8.242-1.843 14.203-5.53 17.89-3.688 3.688-9.653 5.532-17.891 5.532h-98.907c-8.242 0-14.203-1.844-17.89-5.531-3.688-3.688-5.531-9.649-5.531-17.89v-64.423c0-4.332-.22-8.883-.657-13.656-.437-4.781-2.172-9.336-5.203-13.672l-28.625-41c-2.605-3.894-4.996-6.71-7.172-8.453-2.168-1.738-4.984-2.61-8.453-2.61h-9.11c-3.468 0-6.288.872-8.452 2.61-2.168 1.742-4.555 4.559-7.157 8.453l-29.28 41c-3.044 4.336-4.782 8.89-5.22 13.672-.43 4.773-.64 9.324-.64 13.656Zm0 0" fill="#f0f"/><path d="M339.047 623.03H169.86c-8.243 0-15.075-1.515-20.5-4.546-5.418-3.04-9.649-8.68-12.688-16.922L72.906 442.14c-3.898-9.539-7.148-17.89-9.75-25.047-2.605-7.156-4.777-13.988-6.515-20.5-1.73-6.508-2.922-13.344-3.578-20.5-.649-7.156-.97-15.937-.97-26.344V177.97c0-8.25 1.845-14.22 5.532-17.907 3.688-3.688 9.649-5.531 17.89-5.531H178.97c8.25 0 14.539 1.843 18.875 5.53 4.332 3.688 6.5 9.657 6.5 17.907v179.578c0 4.344.43 8.688 1.297 13.032.875 4.335 2.18 8.886 3.922 13.656l30.578 91.094c1.3 4.335 2.816 7.261 4.547 8.78 1.738 1.524 4.343 2.282 7.812 2.282h7.156c3.47 0 6.07-.758 7.813-2.281 1.738-1.52 3.254-4.446 4.547-8.781l30.594-91.75c1.726-4.77 3.023-9.32 3.89-13.657a65.743 65.743 0 0 0 1.313-13.015V177.968c0-8.25 1.843-14.219 5.53-17.906 3.688-3.688 9.65-5.531 17.892-5.531H433.39c8.238 0 14.203 1.843 17.89 5.53 3.688 3.688 5.532 9.657 5.532 17.907V349.75c0 10.407-.328 19.188-.985 26.344-.648 7.156-1.84 13.992-3.578 20.5-1.73 6.512-3.898 13.344-6.5 20.5-2.594 7.156-5.844 15.508-9.75 25.047l-63.765 159.422c-3.043 8.242-7.278 13.883-12.704 16.922-5.418 3.031-12.246 4.547-20.484 4.547ZM779.562 623.03H560.281c-8.25 0-14.219-1.843-17.906-5.53-3.688-3.688-5.532-9.649-5.532-17.891v-421.64c0-8.25 1.844-14.22 5.532-17.907 3.687-3.688 9.656-5.531 17.906-5.531h219.281c54.219 0 94.446 10.851 120.688 32.547 26.25 21.687 39.375 55.09 39.375 100.203v203.015c0 45.117-13.125 78.516-39.375 100.203-26.242 21.688-66.469 32.532-120.688 32.532Zm-95-344.218v221.234h77.422c10.414 0 18.117-2.597 23.11-7.797 4.988-5.207 7.484-13.234 7.484-24.078V310.046c0-10.843-2.496-18.758-7.485-23.75-4.992-4.988-12.695-7.484-23.109-7.484ZM1162.16 599.609c0 8.242-1.843 14.203-5.531 17.89-3.687 3.688-9.652 5.532-17.89 5.532h-98.907c-8.242 0-14.203-1.844-17.89-5.532-3.688-3.687-5.532-9.648-5.532-17.89v-69.625c0-19.957 1.735-34.922 5.203-44.89 3.47-9.977 9.973-21.692 19.516-35.141l52.703-70.922-52.703-70.938c-9.98-13.445-16.594-25.156-19.844-35.125-3.25-9.976-4.875-24.945-4.875-44.906v-50.094c0-8.25 1.844-14.219 5.532-17.906 3.687-3.688 9.648-5.531 17.89-5.531h100.203c8.239 0 14.203 1.843 17.89 5.53 3.688 3.688 5.532 9.657 5.532 17.907v44.89c0 4.337.211 8.891.64 13.673.438 4.773 2.177 9.324 5.22 13.656l28.625 41c2.175 3.469 4.457 6.183 6.843 8.14 2.383 1.95 5.313 2.922 8.782 2.922h7.796c3.477 0 6.301-.972 8.47-2.921 2.163-1.958 4.55-4.672 7.155-8.141l29.282-41c3.03-4.332 4.765-8.883 5.203-13.656.437-4.782.656-9.336.656-13.672v-44.89c0-8.25 1.844-14.22 5.531-17.907 3.688-3.688 9.649-5.531 17.89-5.531h98.907c8.238 0 14.203 1.843 17.89 5.53 3.688 3.688 5.532 9.657 5.532 17.907v50.094c0 19.96-1.734 34.93-5.203 44.906-3.469 9.969-9.977 21.68-19.516 35.125l-52.718 71.578 52.718 70.282c9.969 13.449 16.578 25.164 19.828 35.14 3.258 9.969 4.891 24.934 4.891 44.89v69.626c0 8.242-1.844 14.203-5.531 17.89-3.688 3.688-9.653 5.532-17.89 5.532h-98.907c-8.242 0-14.203-1.844-17.89-5.532-3.688-3.687-5.532-9.648-5.532-17.89v-64.422c0-4.332-.219-8.883-.656-13.656-.438-4.782-2.172-9.336-5.203-13.672l-28.625-41c-2.606-3.895-4.996-6.711-7.172-8.453-2.168-1.739-4.985-2.61-8.453-2.61h-9.11c-3.468 0-6.289.871-8.453 2.61-2.168 1.742-4.555 4.558-7.156 8.453l-29.281 41c-3.043 4.336-4.782 8.89-5.22 13.672-.429 4.773-.64 9.324-.64 13.656Zm0 0" fill="#0ff"/><path d="M322.094 638.84H152.906c-8.242 0-15.074-1.516-20.5-4.547-5.418-3.04-9.648-8.68-12.687-16.922L55.953 457.95c-3.898-9.539-7.148-17.89-9.75-25.047-2.605-7.156-4.777-13.988-6.515-20.5-1.731-6.507-2.922-13.343-3.579-20.5-.648-7.156-.968-15.937-.968-26.343V193.777c0-8.25 1.843-14.218 5.53-17.906 3.688-3.687 9.65-5.531 17.892-5.531h103.453c8.25 0 14.539 1.844 18.875 5.531 4.332 3.688 6.5 9.656 6.5 17.906v179.578c0 4.344.43 8.688 1.297 13.032.875 4.336 2.18 8.886 3.921 13.656l30.579 91.094c1.3 4.336 2.816 7.261 4.546 8.78 1.739 1.524 4.344 2.282 7.813 2.282h7.156c3.469 0 6.07-.758 7.813-2.281 1.738-1.52 3.254-4.445 4.547-8.781l30.593-91.75c1.727-4.77 3.024-9.32 3.89-13.657a65.743 65.743 0 0 0 1.313-13.015V193.777c0-8.25 1.844-14.218 5.532-17.906 3.687-3.687 9.648-5.531 17.89-5.531h102.157c8.238 0 14.203 1.844 17.89 5.531 3.688 3.688 5.531 9.656 5.531 17.906V365.56c0 10.406-.328 19.187-.984 26.343-.648 7.157-1.84 13.993-3.578 20.5-1.73 6.512-3.899 13.344-6.5 20.5-2.594 7.157-5.844 15.508-9.75 25.047L355.28 617.371c-3.043 8.242-7.277 13.883-12.703 16.922-5.418 3.031-12.246 4.547-20.484 4.547ZM762.609 638.84H543.328c-8.25 0-14.219-1.844-17.906-5.531-3.688-3.688-5.532-9.649-5.532-17.891v-421.64c0-8.25 1.844-14.22 5.532-17.907 3.687-3.687 9.656-5.531 17.906-5.531h219.281c54.219 0 94.445 10.851 120.688 32.547 26.25 21.687 39.375 55.09 39.375 100.203v203.015c0 45.118-13.125 78.516-39.375 100.204-26.243 21.687-66.47 32.53-120.688 32.53Zm-95-344.219v221.234h77.422c10.414 0 18.117-2.597 23.11-7.796 4.988-5.207 7.484-13.235 7.484-24.079V325.855c0-10.843-2.496-18.757-7.485-23.75-4.992-4.988-12.695-7.484-23.11-7.484ZM1145.207 615.418c0 8.242-1.844 14.203-5.531 17.89-3.688 3.688-9.653 5.532-17.89 5.532h-98.907c-8.242 0-14.203-1.844-17.89-5.531-3.688-3.688-5.532-9.649-5.532-17.891v-69.625c0-19.957 1.734-34.922 5.203-44.89 3.469-9.977 9.973-21.692 19.516-35.141l52.703-70.922-52.703-70.938c-9.98-13.445-16.594-25.156-19.844-35.125-3.25-9.976-4.875-24.945-4.875-44.906v-50.094c0-8.25 1.844-14.218 5.531-17.906 3.688-3.687 9.649-5.531 17.89-5.531h100.204c8.238 0 14.203 1.844 17.89 5.531 3.688 3.688 5.532 9.656 5.532 17.906v44.89c0 4.337.21 8.892.64 13.673.438 4.773 2.176 9.324 5.22 13.656l28.624 41c2.176 3.469 4.457 6.184 6.844 8.14 2.383 1.95 5.313 2.923 8.781 2.923h7.797c3.477 0 6.301-.973 8.469-2.922 2.164-1.957 4.55-4.672 7.156-8.14l29.281-41c3.032-4.333 4.766-8.884 5.204-13.657.437-4.781.656-9.336.656-13.672v-44.89c0-8.25 1.844-14.22 5.531-17.907 3.688-3.687 9.648-5.531 17.89-5.531h98.907c8.238 0 14.203 1.844 17.89 5.531 3.688 3.688 5.532 9.656 5.532 17.906v50.094c0 19.961-1.735 34.93-5.203 44.906-3.47 9.97-9.977 21.68-19.516 35.125l-52.719 71.578 52.719 70.282c9.969 13.449 16.578 25.164 19.828 35.14 3.258 9.97 4.89 24.934 4.89 44.89v69.626c0 8.242-1.843 14.203-5.53 17.89-3.688 3.688-9.653 5.532-17.891 5.532h-98.906c-8.243 0-14.203-1.844-17.891-5.531-3.687-3.688-5.531-9.649-5.531-17.891v-64.422c0-4.332-.219-8.883-.656-13.656-.438-4.781-2.172-9.336-5.204-13.672l-28.625-41c-2.605-3.895-4.996-6.711-7.171-8.453-2.168-1.738-4.985-2.61-8.454-2.61h-9.109c-3.469 0-6.289.872-8.453 2.61-2.168 1.742-4.555 4.558-7.156 8.453l-29.282 41c-3.043 4.336-4.78 8.89-5.218 13.672-.43 4.773-.641 9.324-.641 13.656Zm0 0"/></svg>